<?xml version="1.0" standalone="no"?>
<!DOCTYPE svg PUBLIC "-//W3C//DTD SVG 20010904//EN"
 "http://www.w3.org/TR/2001/REC-SVG-20010904/DTD/svg10.dtd">
<svg version="1.0" xmlns="http://www.w3.org/2000/svg"
 width="834.000000pt" height="1280.000000pt" viewBox="0 0 834.000000 1280.000000"
 preserveAspectRatio="xMidYMid meet">
<metadata>
Created by potrace 1.15, written by Peter Selinger 2001-2017
</metadata>
<g transform="translate(0.000000,1280.000000) scale(0.100000,-0.100000)"
fill="#111111" stroke="none">
<path d="M3420 12204 c-346 -41 -600 -103 -885 -216 -690 -274 -1279 -815
-1611 -1479 -451 -902 -452 -1914 -3 -2810 415 -828 1187 -1430 2095 -1634
216 -49 365 -66 606 -72 202 -5 431 6 504 23 18 5 28 -5 60 -57 103 -170 294
-313 479 -360 36 -9 44 -14 31 -19 -16 -5 -12 -11 23 -40 39 -30 138 -140 169
-186 11 -17 12 -17 6 6 -11 43 3 19 45 -80 23 -52 39 -100 36 -108 -2 -7 -1
-11 4 -8 5 3 20 -22 35 -55 31 -72 33 -88 5 -39 -11 19 -17 26 -13 15 18 -49
44 -196 45 -255 2 -63 2 -64 9 -20 6 40 7 37 8 -31 1 -42 4 -92 7 -110 4 -29
3 -30 -4 -9 -5 14 -9 40 -10 59 -1 19 -4 32 -7 28 -3 -3 -3 -33 1 -67 6 -48
10 -60 22 -56 37 15 -2 -13 -55 -38 l-59 -28 114 -267 c63 -146 195 -450 293
-676 98 -225 282 -651 410 -945 671 -1546 809 -1862 814 -1868 2 -1 35 11 74
27 l71 29 25 -41 c30 -52 116 -135 176 -169 134 -78 335 -78 469 -1 103 59
182 158 222 274 18 54 20 80 17 169 -3 58 -10 115 -17 128 -12 22 -9 24 53 52
37 17 66 34 66 39 0 9 -152 366 -365 856 -154 354 -517 1192 -806 1858 -257
591 -449 1030 -454 1035 -1 2 -31 -8 -66 -22 -73 -30 -70 -30 -64 -13 2 6 -16
28 -41 47 -74 57 -216 213 -256 281 -43 72 -47 73 -18 3 11 -26 19 -48 17 -51
-8 -8 -58 127 -51 138 4 7 3 9 -3 6 -13 -8 -47 68 -38 84 5 7 4 10 -2 6 -6 -4
-20 16 -33 46 -33 78 -34 87 -5 37 14 -25 23 -36 19 -25 -25 75 -35 158 -31
252 3 64 1 101 -5 97 -5 -3 7 26 26 65 63 124 81 207 80 361 -1 104 -6 151
-22 204 l-20 69 26 21 c57 45 202 178 294 272 458 467 764 1099 853 1764 9 63
18 203 22 310 40 1302 -742 2496 -1952 2979 -237 94 -446 151 -730 197 -96 15
-613 29 -705 18z m610 -495 c172 -23 189 -25 285 -50 352 -89 673 -244 995
-482 86 -63 430 -396 430 -416 0 -4 11 -21 25 -37 31 -35 154 -213 185 -269
41 -72 137 -268 173 -355 159 -379 228 -821 191 -1230 -35 -404 -152 -774
-342 -1090 -75 -125 -194 -294 -232 -330 -3 -3 -18 -21 -34 -40 -49 -61 -180
-193 -246 -250 -36 -30 -67 -57 -70 -60 -12 -14 -235 -162 -325 -217 -110 -67
-337 -183 -406 -208 -369 -132 -646 -193 -911 -202 -474 -16 -951 113 -1399
378 -103 61 -265 170 -279 188 -3 3 -21 18 -40 32 -56 42 -174 153 -270 255
-157 165 -298 369 -408 590 -103 204 -115 235 -173 433 -136 465 -140 975 -12
1451 8 30 18 69 23 85 8 34 47 144 77 220 58 148 208 423 280 515 7 8 33 44
60 80 26 36 50 67 53 70 3 3 30 34 60 70 92 108 263 269 350 330 19 13 37 27
40 31 3 3 58 42 124 84 133 88 363 208 476 249 103 38 251 87 274 92 10 2 33
8 50 13 42 14 102 26 266 55 221 39 507 45 730 15z m1837 -6574 c23 -20 52
-50 65 -68 13 -19 -1 -9 -32 24 -30 30 -68 66 -85 78 -16 12 -21 18 -10 12 11
-5 39 -26 62 -46z m-803 -141 c3 -8 2 -12 -4 -9 -6 3 -10 10 -10 16 0 14 7 11
14 -7z m13 -126 c-3 -8 -6 -5 -6 6 -1 11 2 17 5 13 3 -3 4 -12 1 -19z"/>
<path d="M5627 6643 c-3 -5 -1 -17 4 -28 7 -17 8 -17 8 8 1 27 -4 34 -12 20z"/>
<path d="M4140 6001 c0 -6 4 -13 10 -16 6 -3 7 1 4 9 -7 18 -14 21 -14 7z"/>
<path d="M4900 5321 c0 -6 4 -13 10 -16 6 -3 7 1 4 9 -7 18 -14 21 -14 7z"/>
<path d="M7642 1215 c6 -14 13 -24 14 -22 6 6 -9 47 -17 47 -5 0 -3 -11 3 -25z"/>
<path d="M6722 841 c-10 -6 -6 -13 13 -25 26 -17 26 -17 14 6 -6 13 -12 24
-13 25 -1 1 -7 -2 -14 -6z"/>
</g>
</svg>
