<?xml version="1.0" standalone="no"?>
<!DOCTYPE svg PUBLIC "-//W3C//DTD SVG 20010904//EN"
 "http://www.w3.org/TR/2001/REC-SVG-20010904/DTD/svg10.dtd">
<svg version="1.0" xmlns="http://www.w3.org/2000/svg"
 width="1280.000000pt" height="1014.000000pt" viewBox="0 0 1280.000000 1014.000000"
 preserveAspectRatio="xMidYMid meet">
<metadata>
Created by potrace 1.15, written by Peter Selinger 2001-2017
</metadata>
<g transform="translate(0.000000,1014.000000) scale(0.100000,-0.100000)"
fill="#111111" stroke="none">
<path d="M2655 10130 c-615 -42 -1159 -180 -1583 -400 -244 -127 -412 -249
-573 -417 -234 -246 -358 -506 -394 -827 -4 -32 -17 -91 -30 -131 -61 -187
-87 -433 -66 -630 26 -236 82 -427 196 -660 325 -665 1020 -1266 1934 -1672
609 -270 1290 -438 1995 -493 167 -13 627 -13 792 0 361 29 728 97 1014 189
l88 28 39 -39 c21 -22 135 -125 253 -228 195 -172 217 -194 233 -239 41 -116
231 -341 442 -521 45 -39 671 -665 1391 -1392 2327 -2347 2381 -2401 2468
-2459 149 -98 347 -177 541 -215 124 -24 405 -25 527 -1 454 90 783 374 860
743 57 279 -41 571 -269 798 -42 41 -306 241 -688 520 -341 249 -1315 960
-2164 1580 -849 620 -1598 1172 -1665 1227 -229 189 -399 297 -561 355 -97 35
-98 35 -286 200 -104 92 -189 168 -189 170 0 1 48 49 106 106 316 306 482 634
529 1038 4 30 17 88 31 128 48 147 59 225 58 412 0 141 -4 194 -22 273 -85
385 -284 720 -641 1078 -202 202 -374 343 -616 503 -798 529 -1774 857 -2860
962 -190 18 -707 26 -890 14z m875 -574 c449 -50 831 -127 1220 -245 648 -197
1206 -476 1670 -835 120 -93 400 -367 483 -472 184 -234 301 -480 341 -713 29
-170 22 -200 -76 -333 -417 -566 -1554 -842 -2876 -697 -1318 144 -2586 670
-3272 1358 -279 279 -445 572 -481 847 l-12 91 37 69 c149 272 433 507 811
670 351 151 720 233 1255 278 119 10 763 -3 900 -18z"/>
</g>
</svg>
